<?xml version="1.0" encoding="utf-8"?>
<!-- Svg Vector Icons : http://www.onlinewebfonts.com/icon -->
<!DOCTYPE svg PUBLIC "-//W3C//DTD SVG 1.1//EN" "http://www.w3.org/Graphics/SVG/1.1/DTD/svg11.dtd">
<svg version="1.1" xmlns="http://www.w3.org/2000/svg" xmlns:xlink="http://www.w3.org/1999/xlink" x="0px" y="0px" viewBox="0 0 1000 1000" enable-background="new 0 0 1000 1000" xml:space="preserve">
<metadata> Svg Vector Icons : http://www.onlinewebfonts.com/icon </metadata>
<g><g transform="translate(0.000000,511.000000) scale(0.100000,-0.100000)"><path d="M619.1,4680.3c-212.7-67.5-366-198.4-451.9-386.5L107.8,4167l-6.1-4006.1c-4.1-4355.8-10.2-4139,106.3-4323.1c67.5-106.3,184-204.5,319-267.9l112.5-53.2h2208.6h2208.6l96.1,45c145.2,65.4,288.3,210.6,355.8,359.9l59.3,126.8l6.1,905.9l6.2,908l-42.9-14.3c-24.6-8.2-85.9-32.7-135-53.2l-90-40.9l-4.1-167.7c-2-92-2-231.1,2.1-306.7c4.1-77.7,0-190.2-8.2-251.5l-12.3-110.4l-2447.9,4.1l-2447.9,6.1L388,318.3l-4.1,3388.5h2466.3h2468.3l-14.3-120.6c-8.2-67.5-6.1-126.8,4.1-132.9c10.2-6.1,71.6,6.1,139.1,26.6l120.6,38.9l-2,323.1c-2.1,310.8-4.1,331.3-59.3,451.9c-65.4,149.3-208.6,292.4-353.8,359.9l-96.1,45l-2177.9,4.1C1163.1,4704.8,684.5,4700.8,619.1,4680.3z M3523,4310.2c28.6-26.6,51.1-71.6,51.1-98.2c0-57.3-65.4-132.9-128.8-147.2c-24.5-6.1-314.9-10.2-644.2-6.1l-601.2,6.1l-38.8,49.1c-53.2,65.4-49.1,137,12.3,196.3l49.1,51.1h625.8h625.8L3523,4310.2z M3036.3-3397.4c247.4-116.5,321.1-441.7,145.2-654.4c-202.4-247.4-580.8-206.5-721.9,75.7C2271.4-3597.8,2649.7-3217.4,3036.3-3397.4z"/><path d="M6150.8,3367.4c-550.1-79.8-1063.4-272-1492.8-558.3c-190.2-126.8-501-413.1-629.9-580.8c-390.6-507.2-562.4-1147.2-466.2-1732.1c100.2-591,362-1024.5,926.4-1527.6l65.4-57.3l-143.2-357.9c-286.3-717.8-288.3-726-255.6-805.7c32.7-75.7,85.9-114.5,159.5-114.5c26.6,0,409,155.4,850.7,345.6l801.6,345.6l190.2-30.7c237.2-40.9,832.3-45,1098.2-8.2c106.3,14.3,317,57.3,468.3,96.1C8848.1-1332,9653.8-577.3,9864.5,383.8c47.1,216.8,47.1,678.9,2.1,883.4C9615,2377.6,8608.8,3191.5,7257.1,3369.5C6985.1,3406.3,6408.4,3404.2,6150.8,3367.4z M5492.3,1764.2c128.8-40.9,137-57.3,87.9-227c-55.2-196.3-77.7-216.8-180-177.9c-180,71.6-355.8,63.4-411-20.4c-26.6-38.9-24.5-47,22.5-90c28.6-26.6,132.9-77.7,233.1-116.6c351.7-137,496.9-380.4,413.1-685.1c-28.6-106.3-180-263.8-310.8-321.1c-94.1-42.9-137-49.1-362-49.1c-194.3,0-282.2,8.2-362,36.8c-153.4,53.2-157.4,65.4-110.4,249.5c22.5,87.9,49.1,167.7,61.3,180c14.3,14.3,63.4,6.1,155.4-22.5c177.9-59.3,382.4-61.4,439.7-4.1c22.5,22.5,40.9,49.1,40.9,59.3c0,51.1-94.1,122.7-229,175.9c-190.2,73.6-274,126.8-368.1,231.1c-222.9,247.4-114.5,631.9,220.9,773C4987.2,1821.4,5289.8,1825.5,5492.3,1764.2z M8627.2,1796.9c147.2-16.4,263.8-69.5,263.8-120.7c0-65.4-65.4-288.3-92-319c-22.5-22.5-42.9-22.5-135,8.2c-196.3,65.4-407,40.9-407-49.1c0-55.2,53.2-94.1,243.4-173.8c296.5-124.7,406.9-231.1,451.9-429.4c63.4-284.3-135-562.4-445.8-627.8c-233.1-47-703.5,16.4-736.2,100.2c-16.4,42.9,55.2,325.2,87.9,351.7c22.5,18.4,57.3,14.3,153.4-18.4c155.4-53.2,378.3-59.3,433.5-8.2c51.1,45,47,120.6-8.2,157.5c-26.6,16.4-126.8,63.4-222.9,104.3c-302.7,124.7-427.4,276.1-427.4,507.2c0,65.4,12.3,147.2,28.6,186.1c42.9,102.2,151.3,214.7,263.8,269.9c98.2,51.1,300.6,90,402.9,77.7C8510.7,1809.1,8576.1,1803,8627.2,1796.9z M6453.4,1758c22.5-26.6,135-394.7,214.7-701.4l47-188.1l98.2,331.3c53.2,180,116.6,384.5,141.1,451.9l45,122.7l263.8,6.1c145.2,2.1,272-2,282.2-12.3c22.5-22.5,110.4-1599.2,92-1646.2c-10.2-28.6-45-34.8-216.8-34.8c-120.6,0-208.6,8.2-216.8,22.5c-8.2,10.2-22.5,210.6-32.7,441.7c-10.2,231.1-20.4,423.3-24.5,427.4c-2.1,4.1-63.4-182-135-411s-139.1-425.4-151.3-437.6c-12.3-12.3-94.1-22.5-182-22.5c-128.8,0-161.5,6.1-175.9,36.8c-12.3,18.4-69.5,214.7-128.8,433.5l-110.4,398.8l-20.4-419.2c-10.2-231.1-28.6-431.5-36.8-443.8c-26.6-40.9-400.8-36.8-415.1,4.1c-14.3,34.8,85.9,1617.6,104.3,1646.2C5915.6,1794.8,6426.8,1790.7,6453.4,1758z"/></g></g>
</svg>